<?xml version="1.0" encoding="UTF-8" standalone="no"?>
<!-- Created with Inkscape (http://www.inkscape.org/) -->

<svg
   xmlns:dc="http://purl.org/dc/elements/1.1/"
   xmlns:cc="http://creativecommons.org/ns#"
   xmlns:rdf="http://www.w3.org/1999/02/22-rdf-syntax-ns#"
   xmlns:svg="http://www.w3.org/2000/svg"
   xmlns="http://www.w3.org/2000/svg"
   xmlns:sodipodi="http://sodipodi.sourceforge.net/DTD/sodipodi-0.dtd"
   xmlns:inkscape="http://www.inkscape.org/namespaces/inkscape"
   width="128"
   height="128"
   id="svg3540"
   version="1.1"
   inkscape:version="0.48.3.1 r9886"
   sodipodi:docname="logo.svg"
   inkscape:export-filename="/home/toon/unief/research/code/toon/hipart/doc/logo.png"
   inkscape:export-xdpi="90"
   inkscape:export-ydpi="90">
  <defs
     id="defs3542" />
  <sodipodi:namedview
     id="base"
     pagecolor="#ffffff"
     bordercolor="#666666"
     borderopacity="1.0"
     inkscape:pageopacity="0"
     inkscape:pageshadow="2"
     inkscape:zoom="1.3187673"
     inkscape:cx="121.60436"
     inkscape:cy="53.149605"
     inkscape:document-units="px"
     inkscape:current-layer="layer1"
     showgrid="false"
     units="px"
     fit-margin-top="0.5"
     fit-margin-left="0.5"
     fit-margin-bottom="0.5"
     fit-margin-right="0.5"
     inkscape:window-width="1215"
     inkscape:window-height="1000"
     inkscape:window-x="65"
     inkscape:window-y="24"
     inkscape:window-maximized="1" />
  <metadata
     id="metadata3545">
    <rdf:RDF>
      <cc:Work
         rdf:about="">
        <dc:format>image/svg+xml</dc:format>
        <dc:type
           rdf:resource="http://purl.org/dc/dcmitype/StillImage" />
        <dc:title></dc:title>
      </cc:Work>
    </rdf:RDF>
  </metadata>
  <g
     inkscape:label="Layer 1"
     inkscape:groupmode="layer"
     id="layer1"
     transform="translate(-319.43916,-459.19168)">
    <g
       id="g4925"
       transform="matrix(1.0842286,0,0,1.0842286,-361.70991,-62.684694)">
      <path
         id="path4154"
         style="fill:#0994dc;fill-opacity:1;fill-rule:evenodd;stroke:none"
         d="m 638.49718,504.36346 103.25338,9.4485 c 1.54812,0.14175 2.69862,1.524 2.55687,3.07175 l -5.20862,56.92075 c -0.14175,1.548 -1.524,2.6985 -3.07213,2.55688 l -103.25337,-9.44863 c -1.548,-0.14175 -2.6985,-1.524 -2.55688,-3.072 l 5.20913,-56.92075 c 0.14137,-1.54775 1.52362,-2.69825 3.07162,-2.5565"
         inkscape:connector-curvature="0" />
      <path
         id="path4156"
         style="fill:#ffffff;fill-opacity:1;fill-rule:evenodd;stroke:none"
         d="m 673.72831,516.70934 31.07512,2.84387 c 0.35613,0.0326 0.6205,0.35038 0.58788,0.70725 l -3.97025,43.38638 c -0.0326,0.35675 -0.3505,0.6215 -0.70625,0.58925 l -31.0755,-2.84388 c -0.35613,-0.0326 -0.62013,-0.35075 -0.5875,-0.70762 l 3.97025,-43.38638 c 0.0326,-0.35637 0.35012,-0.6215 0.70625,-0.58887"
         inkscape:connector-curvature="0" />
      <path
         id="path4158"
         style="fill:#ffffff;fill-opacity:1;fill-rule:evenodd;stroke:none"
         d="m 638.27118,513.46471 31.07513,2.8435 c 0.35612,0.0326 0.62037,0.35088 0.58787,0.70763 l -3.97037,43.38637 c -0.0325,0.35688 -0.35038,0.6215 -0.7065,0.58888 l -31.07513,-2.8435 c -0.35612,-0.0325 -0.62012,-0.35075 -0.5875,-0.7075 l 3.97025,-43.3865 c 0.0326,-0.35675 0.35013,-0.62138 0.70625,-0.58888"
         inkscape:connector-curvature="0" />
      <path
         id="path4160"
         style="fill:#ffffff;fill-opacity:1;fill-rule:evenodd;stroke:none"
         d="m 709.18543,519.95396 31.07525,2.84388 c 0.356,0.0326 0.62038,0.35075 0.58775,0.70725 l -3.97025,43.38637 c -0.0326,0.35675 -0.35037,0.62188 -0.70612,0.58925 l -31.07563,-2.84387 c -0.35575,-0.0326 -0.62,-0.35075 -0.58737,-0.70725 l 3.97025,-43.38638 c 0.0326,-0.35675 0.35,-0.62187 0.70612,-0.58925"
         inkscape:connector-curvature="0" />
      <path
         id="path4162"
         style="fill:#ffffff;fill-opacity:1;fill-rule:evenodd;stroke:none"
         d="m 638.95993,506.53334 2.37725,0.2175 c 0.35325,0.0326 0.6155,0.34762 0.58325,0.70087 l -0.35862,3.919 c -0.0323,0.35325 -0.34763,0.61538 -0.70088,0.58313 l -2.37725,-0.2175 c -0.35325,-0.0323 -0.61537,-0.34725 -0.58312,-0.7005 l 0.3585,-3.91925 c 0.0322,-0.35325 0.34762,-0.6155 0.70087,-0.58325"
         inkscape:connector-curvature="0" />
      <path
         id="path4164"
         style="fill:#ffffff;fill-opacity:1;fill-rule:evenodd;stroke:none"
         d="m 646.01856,507.17934 2.37725,0.2175 c 0.35325,0.0326 0.6155,0.34762 0.58325,0.70087 l -0.35863,3.91888 c -0.0322,0.35325 -0.34762,0.6155 -0.70087,0.58325 l -2.37725,-0.21763 c -0.35325,-0.0321 -0.61538,-0.34712 -0.58313,-0.7005 l 0.3585,-3.91925 c 0.0322,-0.35325 0.34763,-0.61537 0.70088,-0.58312"
         inkscape:connector-curvature="0" />
      <path
         id="path4166"
         style="fill:#ffffff;fill-opacity:1;fill-rule:evenodd;stroke:none"
         d="m 653.07718,507.82521 2.37725,0.21763 c 0.35325,0.0325 0.6155,0.3475 0.58325,0.70075 l -0.35862,3.919 c -0.0323,0.35325 -0.34763,0.61537 -0.70088,0.58325 l -2.37725,-0.21763 c -0.35325,-0.0322 -0.61537,-0.34725 -0.58312,-0.7005 l 0.3585,-3.91925 c 0.0322,-0.35325 0.34762,-0.6155 0.70087,-0.58325"
         inkscape:connector-curvature="0" />
      <path
         id="path4168"
         style="fill:#ffffff;fill-opacity:1;fill-rule:evenodd;stroke:none"
         d="m 660.13581,508.47121 2.37725,0.2175 c 0.35325,0.0326 0.6155,0.34763 0.58325,0.70088 l -0.35863,3.91887 c -0.0322,0.35325 -0.34762,0.6155 -0.70087,0.58325 l -2.37725,-0.2175 c -0.35325,-0.0322 -0.61538,-0.34725 -0.58313,-0.70087 l 0.3585,-3.919 c 0.0323,-0.35325 0.34763,-0.61538 0.70088,-0.58313"
         inkscape:connector-curvature="0" />
      <path
         id="path4170"
         style="fill:#ffffff;fill-opacity:1;fill-rule:evenodd;stroke:none"
         d="m 667.54731,509.14934 2.37725,0.21762 c 0.35325,0.0325 0.6155,0.3475 0.58325,0.70088 l -0.35863,3.91887 c -0.0322,0.35325 -0.34762,0.6155 -0.70087,0.58325 l -2.37713,-0.21762 c -0.35337,-0.0323 -0.6155,-0.34725 -0.58325,-0.7005 l 0.3585,-3.91925 c 0.0323,-0.35325 0.34763,-0.6155 0.70088,-0.58325"
         inkscape:connector-curvature="0" />
      <path
         id="path4172"
         style="fill:#ffffff;fill-opacity:1;fill-rule:evenodd;stroke:none"
         d="m 674.25306,509.76309 2.37725,0.2175 c 0.35325,0.0323 0.61537,0.34762 0.58325,0.70087 l -0.35863,3.91888 c -0.0322,0.35325 -0.34762,0.6155 -0.70087,0.58325 l -2.37725,-0.2175 c -0.35325,-0.0322 -0.61538,-0.34763 -0.58325,-0.70088 l 0.35862,-3.91887 c 0.0322,-0.35338 0.34763,-0.6155 0.70088,-0.58325"
         inkscape:connector-curvature="0" />
      <path
         id="path4174"
         style="fill:#ffffff;fill-opacity:1;fill-rule:evenodd;stroke:none"
         d="m 681.31168,510.40896 2.37725,0.21763 c 0.35325,0.0322 0.61538,0.34762 0.58313,0.70087 l -0.3585,3.91888 c -0.0322,0.35325 -0.34763,0.6155 -0.70088,0.58325 l -2.37725,-0.21763 c -0.35325,-0.0322 -0.6155,-0.34762 -0.58325,-0.70087 l 0.35863,-3.91888 c 0.0323,-0.35325 0.34762,-0.6155 0.70087,-0.58325"
         inkscape:connector-curvature="0" />
      <path
         id="path4176"
         style="fill:#ffffff;fill-opacity:1;fill-rule:evenodd;stroke:none"
         d="m 688.37031,511.05496 2.37725,0.2175 c 0.35325,0.0322 0.61537,0.34763 0.58312,0.70088 l -0.3585,3.91887 c -0.0323,0.35338 -0.34762,0.6155 -0.70087,0.58325 l -2.37725,-0.2175 c -0.35325,-0.0323 -0.6155,-0.34762 -0.58325,-0.70087 l 0.35862,-3.91888 c 0.0322,-0.35325 0.34763,-0.6155 0.70088,-0.58325"
         inkscape:connector-curvature="0" />
      <path
         id="path4178"
         style="fill:#ffffff;fill-opacity:1;fill-rule:evenodd;stroke:none"
         d="m 695.42893,511.70084 2.37725,0.21762 c 0.35325,0.0322 0.61538,0.34763 0.58313,0.70088 l -0.3585,3.91887 c -0.0323,0.35325 -0.34763,0.6155 -0.70088,0.58325 l -2.37725,-0.21762 c -0.35325,-0.0322 -0.6155,-0.3475 -0.58325,-0.70088 l 0.35863,-3.91887 c 0.0322,-0.35325 0.34762,-0.6155 0.70087,-0.58325"
         inkscape:connector-curvature="0" />
      <path
         id="path4180"
         style="fill:#ffffff;fill-opacity:1;fill-rule:evenodd;stroke:none"
         d="m 702.84043,512.37909 2.37725,0.2175 c 0.35325,0.0323 0.6155,0.34762 0.58325,0.70087 l -0.35862,3.919 c -0.0322,0.35325 -0.34725,0.61538 -0.70088,0.58313 l -2.37725,-0.2175 c -0.35325,-0.0322 -0.61537,-0.34763 -0.58312,-0.70088 l 0.3585,-3.91887 c 0.0323,-0.35325 0.34762,-0.6155 0.70087,-0.58325"
         inkscape:connector-curvature="0" />
      <path
         id="path4182"
         style="fill:#ffffff;fill-opacity:1;fill-rule:evenodd;stroke:none"
         d="m 709.89906,513.02509 2.37725,0.2175 c 0.35325,0.0323 0.6155,0.34762 0.58325,0.70087 l -0.35863,3.91888 c -0.0323,0.35325 -0.34725,0.6155 -0.70087,0.58325 l -2.37725,-0.21763 c -0.35325,-0.0321 -0.61538,-0.3475 -0.58313,-0.70075 l 0.3585,-3.919 c 0.0322,-0.35325 0.34763,-0.61537 0.70088,-0.58312"
         inkscape:connector-curvature="0" />
      <path
         id="path4184"
         style="fill:#ffffff;fill-opacity:1;fill-rule:evenodd;stroke:none"
         d="m 716.95768,513.67096 2.37725,0.21763 c 0.35325,0.0322 0.6155,0.3475 0.58325,0.70075 l -0.35862,3.919 c -0.0323,0.35325 -0.34725,0.61537 -0.70088,0.58312 l -2.37725,-0.2175 c -0.35325,-0.0322 -0.61537,-0.34762 -0.58312,-0.70087 l 0.3585,-3.91888 c 0.0322,-0.35325 0.34762,-0.6155 0.70087,-0.58325"
         inkscape:connector-curvature="0" />
      <path
         id="path4186"
         style="fill:#ffffff;fill-opacity:1;fill-rule:evenodd;stroke:none"
         d="m 724.01631,514.31696 2.37725,0.2175 c 0.35325,0.0322 0.6155,0.34763 0.58325,0.70088 l -0.35863,3.91887 c -0.0323,0.35325 -0.34725,0.6155 -0.70087,0.58325 l -2.37725,-0.2175 c -0.35325,-0.0323 -0.61538,-0.34762 -0.58313,-0.70087 l 0.3585,-3.919 c 0.0322,-0.35325 0.34763,-0.61538 0.70088,-0.58313"
         inkscape:connector-curvature="0" />
      <path
         id="path4188"
         style="fill:#ffffff;fill-opacity:1;fill-rule:evenodd;stroke:none"
         d="m 731.07493,514.96284 2.37725,0.21762 c 0.35325,0.0322 0.6155,0.3475 0.58325,0.70088 l -0.35862,3.91887 c -0.0323,0.35325 -0.34725,0.6155 -0.70088,0.58325 l -2.37725,-0.21762 c -0.35325,-0.0322 -0.61537,-0.34763 -0.58312,-0.70088 l 0.3585,-3.91887 c 0.0322,-0.35325 0.34762,-0.6155 0.70087,-0.58325"
         inkscape:connector-curvature="0" />
      <path
         id="path4190"
         style="fill:#ffffff;fill-opacity:1;fill-rule:evenodd;stroke:none"
         d="m 738.48643,515.64109 2.37725,0.2175 c 0.35325,0.0323 0.61588,0.34762 0.58325,0.70087 l -0.35862,3.91888 c -0.0322,0.35325 -0.34725,0.6155 -0.7005,0.58325 l -2.3775,-0.2175 c -0.35325,-0.0322 -0.6155,-0.34763 -0.58325,-0.70088 l 0.35862,-3.91887 c 0.0321,-0.35338 0.3475,-0.6155 0.70075,-0.58325"
         inkscape:connector-curvature="0" />
      <path
         id="path4192"
         style="fill:#ffffff;fill-opacity:1;fill-rule:evenodd;stroke:none"
         d="m 634.08293,559.82609 2.37763,0.2175 c 0.35325,0.0322 0.61537,0.34762 0.58312,0.70087 l -0.3585,3.919 c -0.0326,0.35325 -0.34762,0.61538 -0.70087,0.58313 l -2.37725,-0.2175 c -0.35325,-0.0322 -0.61575,-0.34763 -0.58325,-0.70088 l 0.35862,-3.91887 c 0.0323,-0.35325 0.34725,-0.6155 0.7005,-0.58325"
         inkscape:connector-curvature="0" />
      <path
         id="path4194"
         style="fill:#ffffff;fill-opacity:1;fill-rule:evenodd;stroke:none"
         d="m 641.14156,560.47209 2.37762,0.2175 c 0.35325,0.0322 0.61538,0.34762 0.58313,0.70087 l -0.3585,3.91888 c -0.0326,0.35325 -0.34763,0.6155 -0.70088,0.58325 l -2.37725,-0.2175 c -0.35325,-0.0323 -0.61575,-0.34763 -0.58325,-0.70088 l 0.35863,-3.919 c 0.0322,-0.35325 0.34725,-0.61537 0.7005,-0.58312"
         inkscape:connector-curvature="0" />
      <path
         id="path4196"
         style="fill:#ffffff;fill-opacity:1;fill-rule:evenodd;stroke:none"
         d="m 648.20018,561.11796 2.37763,0.21763 c 0.35325,0.0322 0.61537,0.3475 0.58312,0.70087 l -0.3585,3.91888 c -0.0326,0.35325 -0.34762,0.6155 -0.70087,0.58325 l -2.37725,-0.21763 c -0.35325,-0.0322 -0.61575,-0.34762 -0.58325,-0.70087 l 0.35862,-3.91888 c 0.0323,-0.35325 0.34725,-0.6155 0.7005,-0.58325"
         inkscape:connector-curvature="0" />
      <path
         id="path4198"
         style="fill:#ffffff;fill-opacity:1;fill-rule:evenodd;stroke:none"
         d="m 655.25881,561.76396 2.37762,0.2175 c 0.35325,0.0323 0.61538,0.34725 0.58313,0.70088 l -0.3585,3.91887 c -0.0326,0.35325 -0.34763,0.6155 -0.70088,0.58325 l -2.37725,-0.2175 c -0.35325,-0.0326 -0.61587,-0.34762 -0.58325,-0.70087 l 0.35863,-3.91888 c 0.0323,-0.35337 0.34725,-0.6155 0.7005,-0.58325"
         inkscape:connector-curvature="0" />
      <path
         id="path4200"
         style="fill:#ffffff;fill-opacity:1;fill-rule:evenodd;stroke:none"
         d="m 662.67031,562.44209 2.37762,0.21762 c 0.35325,0.0322 0.6155,0.3475 0.58325,0.70088 l -0.35862,3.91887 c -0.0326,0.35325 -0.34763,0.6155 -0.70088,0.58325 l -2.37725,-0.21762 c -0.35325,-0.0322 -0.61575,-0.34763 -0.58312,-0.70088 l 0.3585,-3.91887 c 0.0322,-0.35325 0.34725,-0.6155 0.7005,-0.58325"
         inkscape:connector-curvature="0" />
      <path
         id="path4202"
         style="fill:#ffffff;fill-opacity:1;fill-rule:evenodd;stroke:none"
         d="m 669.37606,563.05584 2.3775,0.2175 c 0.35337,0.0323 0.6155,0.34725 0.58325,0.7005 l -0.3585,3.91925 c -0.0326,0.35337 -0.34763,0.6155 -0.70088,0.58325 l -2.37725,-0.2175 c -0.35325,-0.0326 -0.61587,-0.34763 -0.58325,-0.70088 l 0.35863,-3.91887 c 0.0323,-0.35325 0.34725,-0.6155 0.7005,-0.58325"
         inkscape:connector-curvature="0" />
      <path
         id="path4204"
         style="fill:#ffffff;fill-opacity:1;fill-rule:evenodd;stroke:none"
         d="m 676.43468,563.70171 2.3775,0.21763 c 0.35338,0.0322 0.6155,0.34725 0.58325,0.7005 l -0.3585,3.91925 c -0.0326,0.35325 -0.34762,0.6155 -0.70087,0.58325 l -2.37725,-0.21763 c -0.35325,-0.0325 -0.61588,-0.3475 -0.58325,-0.70087 l 0.35862,-3.91888 c 0.0322,-0.35325 0.34725,-0.6155 0.7005,-0.58325"
         inkscape:connector-curvature="0" />
      <path
         id="path4206"
         style="fill:#ffffff;fill-opacity:1;fill-rule:evenodd;stroke:none"
         d="m 683.49331,564.34771 2.3775,0.2175 c 0.35337,0.0323 0.6155,0.34725 0.58325,0.70063 l -0.3585,3.91925 c -0.0326,0.35325 -0.34763,0.61537 -0.70088,0.58312 l -2.37725,-0.2175 c -0.35325,-0.0326 -0.61587,-0.34762 -0.58325,-0.70087 l 0.35863,-3.91888 c 0.0322,-0.35325 0.34725,-0.6155 0.7005,-0.58325"
         inkscape:connector-curvature="0" />
      <path
         id="path4208"
         style="fill:#ffffff;fill-opacity:1;fill-rule:evenodd;stroke:none"
         d="m 690.55193,564.99359 2.3775,0.21762 c 0.35338,0.0322 0.6155,0.34725 0.58325,0.7005 l -0.3585,3.91888 c -0.0326,0.35362 -0.34762,0.61587 -0.70087,0.58325 l -2.37725,-0.21725 c -0.35325,-0.0325 -0.61588,-0.3475 -0.58325,-0.70075 l 0.35862,-3.919 c 0.0322,-0.35325 0.34725,-0.61538 0.7005,-0.58325"
         inkscape:connector-curvature="0" />
      <path
         id="path4210"
         style="fill:#ffffff;fill-opacity:1;fill-rule:evenodd;stroke:none"
         d="m 697.96343,565.67184 2.37763,0.2175 c 0.35325,0.0322 0.61537,0.34725 0.58312,0.70062 l -0.3585,3.91925 c -0.0326,0.35325 -0.34762,0.61538 -0.70087,0.58313 l -2.37725,-0.2175 c -0.35325,-0.0326 -0.61575,-0.34763 -0.58325,-0.70088 l 0.35862,-3.91887 c 0.0322,-0.35325 0.34725,-0.6155 0.7005,-0.58325"
         inkscape:connector-curvature="0" />
      <path
         id="path4212"
         style="fill:#ffffff;fill-opacity:1;fill-rule:evenodd;stroke:none"
         d="m 705.02206,566.31784 2.37762,0.2175 c 0.35325,0.0322 0.61538,0.34725 0.58313,0.7005 l -0.3585,3.91925 c -0.0326,0.35325 -0.34763,0.6155 -0.70088,0.58325 l -2.37725,-0.2175 c -0.35325,-0.0326 -0.61575,-0.34763 -0.58325,-0.70088 l 0.35863,-3.919 c 0.0322,-0.35325 0.34725,-0.61537 0.7005,-0.58312"
         inkscape:connector-curvature="0" />
      <path
         id="path4214"
         style="fill:#ffffff;fill-opacity:1;fill-rule:evenodd;stroke:none"
         d="m 712.08068,566.96371 2.37763,0.21763 c 0.35325,0.0323 0.61537,0.34725 0.58312,0.7005 l -0.3585,3.91925 c -0.0326,0.35325 -0.34762,0.61537 -0.70087,0.58325 l -2.37725,-0.21763 c -0.35325,-0.0326 -0.61575,-0.34762 -0.58325,-0.70087 l 0.35862,-3.91888 c 0.0322,-0.35325 0.34725,-0.6155 0.7005,-0.58325"
         inkscape:connector-curvature="0" />
      <path
         id="path4216"
         style="fill:#ffffff;fill-opacity:1;fill-rule:evenodd;stroke:none"
         d="m 719.13931,567.60971 2.37762,0.2175 c 0.35325,0.0322 0.61538,0.34725 0.58313,0.7005 l -0.3585,3.91888 c -0.0326,0.35362 -0.34763,0.61587 -0.70088,0.58325 l -2.37725,-0.21713 c -0.35325,-0.0326 -0.61575,-0.34762 -0.58325,-0.70087 l 0.35863,-3.91888 c 0.0322,-0.35337 0.34725,-0.6155 0.7005,-0.58325"
         inkscape:connector-curvature="0" />
      <path
         id="path4218"
         style="fill:#ffffff;fill-opacity:1;fill-rule:evenodd;stroke:none"
         d="m 726.19793,568.25559 2.37763,0.21762 c 0.35325,0.0322 0.61537,0.34725 0.58312,0.7005 l -0.3585,3.91888 c -0.0326,0.35325 -0.34762,0.61587 -0.70087,0.58325 l -2.37725,-0.21763 c -0.35325,-0.0322 -0.61575,-0.34725 -0.58325,-0.7005 l 0.35862,-3.91887 c 0.0323,-0.35325 0.34725,-0.61588 0.7005,-0.58325"
         inkscape:connector-curvature="0" />
      <path
         id="path4220"
         style="fill:#ffffff;fill-opacity:1;fill-rule:evenodd;stroke:none"
         d="m 733.60943,568.93384 2.37763,0.2175 c 0.35325,0.0322 0.6155,0.34725 0.58325,0.7005 l -0.35863,3.91925 c -0.0323,0.35325 -0.34762,0.6155 -0.70087,0.58325 l -2.37725,-0.2175 c -0.35325,-0.0326 -0.61538,-0.34763 -0.58313,-0.70088 l 0.3585,-3.91887 c 0.0323,-0.35338 0.34725,-0.6155 0.7005,-0.58325"
         inkscape:connector-curvature="0" />
      <path
         id="path4222"
         style="fill:#b3232c;fill-opacity:1;fill-rule:evenodd;stroke:#231f20;stroke-width:0.70862502;stroke-linecap:butt;stroke-linejoin:miter;stroke-miterlimit:22.92558479;stroke-opacity:1;stroke-dasharray:none"
         d="m 654.57643,539.13921 c 0.92188,-2.29287 3.58688,-3.38062 5.95125,-2.42962 2.3645,0.951 3.53375,3.58125 2.61175,5.87375 -0.92225,2.2925 -3.58725,3.38062 -5.95162,2.42962 -2.36413,-0.951 -3.53375,-3.58125 -2.61138,-5.87375 z"
         inkscape:connector-curvature="0" />
      <g
         transform="matrix(0.67435,-1.676575,-1.676575,-0.67435,-113.88969,1215.1997)"
         id="g4224">
        <path
           id="path4226"
           style="fill:none;stroke:#231f20;stroke-width:0.49039999;stroke-linecap:butt;stroke-linejoin:miter;stroke-miterlimit:22.92558479;stroke-opacity:1;stroke-dasharray:none"
           d="m 500.9083,-250.7355 3.3783,-4.7001"
           inkscape:connector-curvature="0" />
      </g>
      <g
         transform="matrix(0.67435,-1.676575,-1.676575,-0.67435,-113.88969,1215.1997)"
         id="g4228">
        <path
           id="path4230"
           style="fill:none;stroke:#231f20;stroke-width:0.49039999;stroke-linecap:butt;stroke-linejoin:miter;stroke-miterlimit:22.92558479;stroke-opacity:1;stroke-dasharray:none"
           d="m 507.7315,-255.9121 5.0599,3.731"
           inkscape:connector-curvature="0" />
      </g>
      <path
         id="path4232"
         style="fill:#f4f1e4;fill-opacity:1;fill-rule:evenodd;stroke:#231f20;stroke-width:0.70862502;stroke-linecap:butt;stroke-linejoin:miter;stroke-miterlimit:22.92558479;stroke-opacity:1;stroke-dasharray:none"
         d="m 637.88668,542.89259 c 0.922,-2.2925 3.58688,-3.38063 5.95138,-2.42963 2.36437,0.951 3.53375,3.58125 2.61137,5.87375 -0.922,2.2925 -3.58687,3.38063 -5.95137,2.42963 -2.36438,-0.951 -3.53375,-3.58125 -2.61138,-5.87375 z"
         inkscape:connector-curvature="0" />
      <path
         id="path4234"
         style="fill:#f4f1e4;fill-opacity:1;fill-rule:evenodd;stroke:#231f20;stroke-width:0.70862502;stroke-linecap:butt;stroke-linejoin:miter;stroke-miterlimit:22.92558479;stroke-opacity:1;stroke-dasharray:none"
         d="m 650.18831,523.33646 c 0.92237,-2.29262 3.58725,-3.38075 5.95137,-2.42975 2.3645,0.95113 3.53375,3.58125 2.61175,5.87375 -0.922,2.2925 -3.58725,3.38075 -5.95137,2.42963 -2.36438,-0.951 -3.53363,-3.58113 -2.61175,-5.87363 z"
         inkscape:connector-curvature="0" />
      <path
         id="path4236"
         style="fill:#b3232c;fill-opacity:1;fill-rule:evenodd;stroke:#231f20;stroke-width:0.70862502;stroke-linecap:butt;stroke-linejoin:miter;stroke-miterlimit:22.92558479;stroke-opacity:1;stroke-dasharray:none"
         d="m 726.75356,544.46796 c -0.62013,-2.39175 0.877,-4.85037 3.34375,-5.49 2.46725,-0.6395 4.97025,0.78163 5.59062,3.17375 0.62013,2.39175 -0.87725,4.8505 -3.34412,5.49 -2.46688,0.63963 -4.97025,-0.78162 -5.59025,-3.17375 z"
         inkscape:connector-curvature="0" />
      <g
         transform="matrix(-0.45355,-1.7492625,-1.7492625,0.45355,-113.88969,1215.1997)"
         id="g4238">
        <path
           id="path4240"
           style="fill:none;stroke:#231f20;stroke-width:0.49039999;stroke-linecap:butt;stroke-linejoin:miter;stroke-miterlimit:22.92558479;stroke-opacity:1;stroke-dasharray:none"
           d="m 237.6638,-539.2636 3.3786,-4.7001"
           inkscape:connector-curvature="0" />
      </g>
      <g
         transform="matrix(-0.45355,-1.7492625,-1.7492625,0.45355,-113.88969,1215.1997)"
         id="g4242">
        <path
           id="path4244"
           style="fill:none;stroke:#231f20;stroke-width:0.49039999;stroke-linecap:butt;stroke-linejoin:miter;stroke-miterlimit:22.92558479;stroke-opacity:1;stroke-dasharray:none"
           d="m 244.4871,-544.4402 4.7457,4.2968"
           inkscape:connector-curvature="0" />
      </g>
      <path
         id="path4246"
         style="fill:#f4f1e4;fill-opacity:1;fill-rule:evenodd;stroke:#231f20;stroke-width:0.70862502;stroke-linecap:butt;stroke-linejoin:miter;stroke-miterlimit:22.92558479;stroke-opacity:1;stroke-dasharray:none"
         d="m 718.36268,554.60146 c -0.62012,-2.39212 0.87725,-4.85037 3.34413,-5.49 2.46687,-0.6395 4.97025,0.78163 5.59025,3.17338 0.62012,2.39212 -0.877,4.8505 -3.34375,5.49 -2.46725,0.64 -4.97025,-0.78125 -5.59063,-3.17338 z"
         inkscape:connector-curvature="0" />
      <path
         id="path4248"
         style="fill:#f4f1e4;fill-opacity:1;fill-rule:evenodd;stroke:#231f20;stroke-width:0.70862502;stroke-linecap:butt;stroke-linejoin:miter;stroke-miterlimit:22.92558479;stroke-opacity:1;stroke-dasharray:none"
         d="m 712.44956,534.58284 c -0.62013,-2.392 0.87737,-4.85038 3.34412,-5.49 2.46688,-0.6395 4.97025,0.78162 5.59038,3.17375 0.62,2.39175 -0.877,4.85012 -3.34388,5.49 -2.46725,0.63962 -4.97025,-0.78163 -5.59062,-3.17375 z"
         inkscape:connector-curvature="0" />
      <path
         id="path4250"
         style="fill:#b3232c;fill-opacity:1;fill-rule:evenodd;stroke:#231f20;stroke-width:0.70862502;stroke-linecap:butt;stroke-linejoin:miter;stroke-miterlimit:22.92558479;stroke-opacity:1;stroke-dasharray:none"
         d="m 690.46268,542.31121 c -0.067,-2.47012 1.94413,-4.5295 4.4915,-4.5985 2.54763,-0.0695 4.6675,1.8775 4.73488,4.348 0.067,2.47 -1.94425,4.52938 -4.49188,4.59875 -2.54725,0.0691 -4.66762,-1.87787 -4.7345,-4.34825 z"
         inkscape:connector-curvature="0" />
      <g
         transform="matrix(-0.049075,-1.8064375,-1.8064375,0.049075,-113.88969,1215.1997)"
         id="g4252">
        <path
           id="path4254"
           style="fill:none;stroke:#231f20;stroke-width:0.49039999;stroke-linecap:butt;stroke-linejoin:miter;stroke-miterlimit:22.92558479;stroke-opacity:1;stroke-dasharray:none"
           d="m 355.2639,-450.8651 3.378,-4.7002"
           inkscape:connector-curvature="0" />
      </g>
      <g
         transform="matrix(-0.049075,-1.8064375,-1.8064375,0.049075,-113.88969,1215.1997)"
         id="g4256">
        <path
           id="path4258"
           style="fill:none;stroke:#231f20;stroke-width:0.49039999;stroke-linecap:butt;stroke-linejoin:miter;stroke-miterlimit:22.92558479;stroke-opacity:1;stroke-dasharray:none"
           d="m 362.0869,-456.0423 5.9513,4.3441"
           inkscape:connector-curvature="0" />
      </g>
      <path
         id="path4260"
         style="fill:#f4f1e4;fill-opacity:1;fill-rule:evenodd;stroke:#231f20;stroke-width:0.70862502;stroke-linecap:butt;stroke-linejoin:miter;stroke-miterlimit:22.92558479;stroke-opacity:1;stroke-dasharray:none"
         d="m 678.49056,551.23709 c -0.067,-2.47038 1.94412,-4.52975 4.49175,-4.59888 2.54737,-0.069 4.66762,1.878 4.73462,4.348 0.0673,2.47038 -1.94425,4.5295 -4.4915,4.59888 -2.54762,0.0691 -4.66762,-1.87788 -4.73487,-4.348 z"
         inkscape:connector-curvature="0" />
      <path
         id="path4262"
         style="fill:#f4f1e4;fill-opacity:1;fill-rule:evenodd;stroke:#231f20;stroke-width:0.70862502;stroke-linecap:butt;stroke-linejoin:miter;stroke-miterlimit:22.92558479;stroke-opacity:1;stroke-dasharray:none"
         d="m 679.20418,528.63584 c -0.0674,-2.47013 1.94413,-4.5295 4.4915,-4.59888 2.54763,-0.0691 4.6675,1.87788 4.73488,4.34825 0.067,2.47013 -1.94425,4.5295 -4.49188,4.5985 -2.54725,0.0695 -4.66762,-1.8775 -4.7345,-4.34787 z"
         inkscape:connector-curvature="0" />
    </g>
  </g>
</svg>
